<svg width="480" height="455" viewBox="0 0 480 455" fill="none" xmlns="http://www.w3.org/2000/svg">
<path d="M472.705 221.153C467.605 264.353 447.905 314.553 408.505 337.653C349.005 372.553 354.005 426.153 237.805 449.453C219.705 453.053 202.505 454.653 186.305 454.353C177.605 454.153 169.205 453.453 161.005 452.253C87.2051 441.453 37.5051 390.153 19.2051 328.153C-4.79488 246.653 43.1051 193.353 74.9051 161.153C106.705 129.153 129.905 28.9526 243.905 5.15258C261.305 1.55258 279.105 -0.347425 296.905 0.0525753C337.505 1.05258 381.705 14.3526 412.305 42.1526C414.605 44.2526 416.805 46.4526 419.005 48.6526C461.605 92.3526 479.605 162.153 472.705 221.053V221.153Z" fill="#2F55D4"/>
<path opacity="0.7" d="M472.705 221.153C467.605 264.353 447.905 314.553 408.505 337.653C349.005 372.553 354.005 426.153 237.805 449.453C219.705 453.053 202.505 454.653 186.305 454.353C177.605 454.153 169.205 453.453 161.005 452.253C87.2051 441.453 37.5051 390.153 19.2051 328.153C-4.79488 246.653 43.1051 193.353 74.9051 161.153C106.705 129.153 129.905 28.9526 243.905 5.15258C261.305 1.55258 279.105 -0.347425 296.905 0.0525753C337.505 1.05258 381.705 14.3526 412.305 42.1526C414.605 44.2526 416.805 46.4526 419.005 48.6526C461.605 92.3526 479.605 162.153 472.705 221.053V221.153Z" fill="white"/>
<path d="M340.105 448.353H479.305" stroke="#263238" stroke-linecap="round" stroke-linejoin="round"/>
<path d="M19.7051 448.353H331.005" stroke="#263238" stroke-linecap="round" stroke-linejoin="round"/>
<path d="M27.8049 241.953C27.8049 241.953 24.4049 251.353 17.1049 252.653C9.80494 253.953 -3.09506 239.753 5.10494 232.453C13.2049 225.153 24.4049 236.753 27.8049 241.853V241.953Z" fill="#2F55D4" stroke="#263238" stroke-linecap="round" stroke-linejoin="round"/>
<path d="M39.0049 195.653C39.0049 195.653 28.3049 221.853 32.6049 234.653C36.9049 247.553 63.5049 256.953 71.2049 240.253C78.9049 223.553 61.8049 199.953 55.3049 194.753C48.9049 189.653 41.1049 191.353 39.0049 195.653Z" fill="#2F55D4" stroke="#263238" stroke-linecap="round" stroke-linejoin="round"/>
<path d="M101.605 206.853C101.605 206.853 83.2052 223.553 81.0052 240.353C78.9052 257.053 91.3052 263.053 104.205 260.953C117.105 258.853 123.505 226.253 119.605 211.153C115.705 196.153 101.605 206.853 101.605 206.853Z" fill="#2F55D4" stroke="#263238" stroke-linecap="round" stroke-linejoin="round"/>
<path d="M105.005 299.453C105.005 299.453 84.4049 300.353 83.6049 310.153C82.7049 320.053 92.6049 322.153 102.505 313.553C112.405 304.953 113.705 299.853 105.105 299.353L105.005 299.453Z" fill="#2F55D4" stroke="#263238" stroke-linecap="round" stroke-linejoin="round"/>
<path d="M83.9048 312.553C83.9048 312.553 100.105 305.153 107.405 303.853" stroke="#263238" stroke-miterlimit="10"/>
<path d="M109.605 364.053C109.605 364.053 94.5049 350.053 86.9049 356.453C79.3049 362.753 84.7049 371.353 97.8049 372.253C110.805 373.153 115.405 370.453 109.705 364.053H109.605Z" fill="#2F55D4" stroke="#263238" stroke-linecap="round" stroke-linejoin="round"/>
<path d="M85.5049 358.252C85.5049 358.252 102.205 364.552 108.305 368.752" stroke="#263238" stroke-miterlimit="10"/>
<path d="M29.9051 359.853C29.9051 359.853 50.7051 340.553 61.2051 349.353C71.7051 358.053 64.2051 369.853 46.2051 371.153C28.2051 372.453 21.9051 368.753 29.9051 359.953V359.853Z" fill="#2F55D4" stroke="#263238" stroke-linecap="round" stroke-linejoin="round"/>
<path d="M63.1051 351.953C63.1051 351.953 40.1051 360.553 31.7051 366.453" stroke="#263238" stroke-miterlimit="10"/>
<path d="M54.005 320.053C54.005 320.053 51.905 330.353 44.105 334.253C36.405 338.153 22.705 329.953 29.905 317.553C37.205 305.153 50.105 314.953 53.905 320.153L54.005 320.053Z" fill="#2F55D4" stroke="#263238" stroke-linecap="round" stroke-linejoin="round"/>
<path d="M36.0051 287.853C36.0051 287.853 32.1051 279.253 17.1051 284.853C2.10507 290.453 -3.89493 299.053 5.50507 302.053C14.9051 305.053 36.0051 287.853 36.0051 287.853Z" fill="#2F55D4" stroke="#263238" stroke-linecap="round" stroke-linejoin="round"/>
<path d="M33.105 287.453C33.105 287.453 17.205 289.153 8.60498 296.453" stroke="#263238" stroke-miterlimit="10"/>
<path d="M78.9053 184.953C78.9053 184.953 81.5053 190.953 86.6053 189.653C91.7053 188.353 93.0053 180.653 101.205 182.753C109.305 184.853 116.205 194.353 116.205 190.053C116.205 185.753 105.905 174.653 94.3053 174.653C82.7053 174.653 79.3053 179.353 78.9053 184.953Z" fill="#2F55D4" stroke="#263238" stroke-linecap="round" stroke-linejoin="round"/>
<path d="M36.0049 287.853C36.0049 287.853 54.5049 284.353 62.2049 304.853C63.0049 306.853 63.6049 308.953 64.1049 311.153" stroke="#263238" stroke-miterlimit="10"/>
<path d="M113.105 268.053C113.105 268.053 117.005 259.453 132.005 265.053C147.005 270.653 153.005 279.253 143.605 282.253C134.205 285.253 113.105 268.053 113.105 268.053Z" fill="#2F55D4" stroke="#263238" stroke-linecap="round" stroke-linejoin="round"/>
<path d="M116.505 268.553C116.505 268.553 132.005 267.653 139.305 276.753" stroke="#263238" stroke-miterlimit="10"/>
<path d="M113.105 268.053C113.105 268.053 107.005 266.853 100.305 269.753" stroke="#263238" stroke-miterlimit="10"/>
<path d="M45.8053 252.653C36.7053 243.453 27.8053 242.053 27.8053 242.053C27.8053 242.053 14.6053 238.553 9.40527 243.253" stroke="#263238" stroke-miterlimit="10"/>
<path d="M47.7053 205.153L46.9053 201.553" stroke="#263238" stroke-miterlimit="10"/>
<path d="M68.5049 394.753C68.5049 394.753 70.4049 320.853 68.5049 298.453C66.6049 276.053 57.6049 249.753 57.6049 249.753L48.5049 208.953" stroke="#263238" stroke-miterlimit="10"/>
<path d="M106.705 220.953L108.305 217.453" stroke="#263238" stroke-miterlimit="10"/>
<path d="M73.0049 394.653C73.0049 394.653 73.6049 327.253 76.2049 308.053C78.8049 288.853 89.0049 258.753 89.0049 258.753L104.705 225.053" stroke="#263238" stroke-miterlimit="10"/>
<path d="M83.9053 312.553C83.9053 312.553 79.4053 351.153 76.9053 394.753" stroke="#263238" stroke-miterlimit="10"/>
<path d="M62.1051 394.653C62.1051 394.653 63.4051 333.053 60.8051 324.753C58.2051 316.453 53.9051 320.053 53.9051 320.053C53.9051 320.053 42.0051 321.453 37.7051 328.353" stroke="#263238" stroke-miterlimit="10"/>
<path d="M65.105 315.953C68.505 334.753 65.405 394.753 65.405 394.753" stroke="#263238" stroke-miterlimit="10"/>
<path d="M96.6051 271.753C92.9051 274.253 89.3051 278.353 86.9051 284.953C79.2051 305.453 80.1051 394.753 80.1051 394.753" stroke="#263238" stroke-miterlimit="10"/>
<path d="M48.105 255.053C52.105 259.753 56.005 266.153 59.005 274.653C69.305 304.153 73.105 380.453 71.205 394.553" stroke="#263238" stroke-miterlimit="10"/>
<path d="M74.1049 282.653C73.5049 319.853 73.0049 394.653 73.0049 394.653" stroke="#263238" stroke-miterlimit="10"/>
<path d="M74.2051 278.053C74.6051 253.453 75.1051 229.353 75.6051 216.453C76.9051 183.153 78.9051 184.953 78.9051 184.953C78.9051 184.953 81.3051 177.453 94.6051 178.353" stroke="#263238" stroke-miterlimit="10"/>
<path d="M57.8052 306.153C57.8052 306.153 47.1052 296.553 51.4052 291.853C55.7052 287.153 82.3052 283.653 90.0052 289.853C97.7052 295.953 80.6052 304.553 74.1052 306.453C67.7052 308.353 59.9052 307.753 57.8052 306.153Z" fill="#2F55D4" stroke="#263238" stroke-linecap="round" stroke-linejoin="round"/>
<path d="M67.7054 298.353C67.6054 299.353 67.5054 300.253 67.5054 301.253" stroke="#263238" stroke-miterlimit="10"/>
<path d="M71.405 287.153C71.405 287.153 69.805 290.353 68.605 294.253" stroke="#263238" stroke-miterlimit="10"/>
<path d="M57.8052 368.653C57.8052 368.653 47.1052 359.053 51.4052 354.353C55.7052 349.653 82.3052 346.153 90.0052 352.353C97.7052 358.453 80.6052 367.053 74.1052 368.953C67.6052 370.853 59.9052 370.253 57.8052 368.653Z" fill="#2F55D4" stroke="#263238" stroke-linecap="round" stroke-linejoin="round"/>
<path d="M71.4054 349.653C71.4054 349.653 67.5054 357.453 67.5054 363.653" stroke="#263238" stroke-miterlimit="10"/>
<path d="M65.7051 342.253C65.7051 342.253 58.4051 335.753 61.3051 332.553C64.2051 329.353 82.3051 327.053 87.5051 331.153C92.7051 335.353 81.1051 341.153 76.7051 342.453C72.3051 343.753 67.1051 343.353 65.6051 342.253H65.7051Z" fill="#2F55D4" stroke="#263238" stroke-linecap="round" stroke-linejoin="round"/>
<path d="M75.0052 329.353C75.0052 329.353 72.3052 334.653 72.3052 338.853" stroke="#263238" stroke-miterlimit="10"/>
<path d="M84.7051 384.053H55.7051V448.453H84.7051V384.053Z" fill="white" stroke="#263238" stroke-linecap="round" stroke-linejoin="round"/>
<path d="M268.605 266.353H359.705C362.105 266.353 364.105 268.353 364.105 270.753V349.753C364.105 352.153 362.105 354.153 359.705 354.153H268.605C266.205 354.153 264.205 352.153 264.205 349.753V270.753C264.205 268.353 266.205 266.353 268.605 266.353Z" fill="#263238" stroke="#263238" stroke-linecap="round" stroke-linejoin="round"/>
<path d="M265.405 261.553H356.505C358.905 261.553 360.905 263.553 360.905 265.953V344.953C360.905 347.353 358.905 349.353 356.505 349.353H265.405C263.005 349.353 261.005 347.353 261.005 344.953V265.953C261.005 263.553 263.005 261.553 265.405 261.553Z" fill="white" stroke="#263238" stroke-linecap="round" stroke-linejoin="round"/>
<path d="M360.905 272.653V265.953C360.905 263.553 358.905 261.553 356.505 261.553H265.405C263.005 261.553 261.005 263.553 261.005 265.953V272.653H360.805H360.905Z" fill="#2F55D4" stroke="#263238" stroke-linecap="round" stroke-linejoin="round"/>
<path d="M334.505 270.153C335.996 270.153 337.205 268.944 337.205 267.453C337.205 265.962 335.996 264.753 334.505 264.753C333.014 264.753 331.805 265.962 331.805 267.453C331.805 268.944 333.014 270.153 334.505 270.153Z" fill="white" stroke="#263238" stroke-linecap="round" stroke-linejoin="round"/>
<path d="M345.705 267.453C345.705 265.953 344.505 264.753 343.005 264.753C341.505 264.753 340.305 265.953 340.305 267.453C340.305 268.953 341.505 270.153 343.005 270.153C344.505 270.153 345.705 268.953 345.705 267.453Z" fill="white" stroke="#263238" stroke-linecap="round" stroke-linejoin="round"/>
<path d="M351.505 270.153C352.996 270.153 354.205 268.944 354.205 267.453C354.205 265.962 352.996 264.753 351.505 264.753C350.014 264.753 348.805 265.962 348.805 267.453C348.805 268.944 350.014 270.153 351.505 270.153Z" fill="white" stroke="#263238" stroke-linecap="round" stroke-linejoin="round"/>
<path d="M348.505 278.753H274.605C273.305 278.753 272.305 279.753 272.305 281.053V309.053L277.605 300.753H348.405C349.705 300.753 350.705 299.753 350.705 298.453V281.053C350.705 279.753 349.705 278.753 348.405 278.753H348.505Z" stroke="#263238" stroke-miterlimit="10"/>
<path d="M274.605 313.753H348.505C349.805 313.753 350.805 314.753 350.805 316.053V344.053L345.505 335.753H274.705C273.405 335.753 272.405 334.753 272.405 333.453V316.053C272.405 314.753 273.405 313.753 274.705 313.753H274.605Z" stroke="#263238" stroke-miterlimit="10"/>
<path d="M285.805 296.253C289.505 296.253 292.505 293.253 292.505 289.553C292.505 285.852 289.505 282.853 285.805 282.853C282.105 282.853 279.105 285.852 279.105 289.553C279.105 293.253 282.105 296.253 285.805 296.253Z" fill="#2F55D4" stroke="#263238" stroke-linecap="round" stroke-linejoin="round"/>
<path d="M285.805 290.453C287.351 290.453 288.605 289.199 288.605 287.653C288.605 286.106 287.351 284.853 285.805 284.853C284.258 284.853 283.005 286.106 283.005 287.653C283.005 289.199 284.258 290.453 285.805 290.453Z" fill="white" stroke="#263238" stroke-linecap="round" stroke-linejoin="round"/>
<path d="M285.805 296.253C287.305 296.253 288.605 295.753 289.705 294.953C289.705 292.853 287.905 291.053 285.805 291.053C283.705 291.053 281.905 292.753 281.905 294.953C283.005 295.753 284.305 296.253 285.805 296.253Z" fill="white" stroke="#263238" stroke-linecap="round" stroke-linejoin="round"/>
<path d="M297.205 283.953H319.905" stroke="#263238" stroke-miterlimit="10"/>
<path d="M297.705 290.453H344.505" stroke="#263238" stroke-miterlimit="10"/>
<path d="M297.705 294.553H344.505" stroke="#263238" stroke-miterlimit="10"/>
<path d="M285.805 332.053C289.505 332.053 292.505 329.053 292.505 325.353C292.505 321.653 289.505 318.653 285.805 318.653C282.105 318.653 279.105 321.653 279.105 325.353C279.105 329.053 282.105 332.053 285.805 332.053Z" fill="#263238" stroke="#263238" stroke-linecap="round" stroke-linejoin="round"/>
<path d="M285.805 326.153C287.351 326.153 288.605 324.899 288.605 323.353C288.605 321.806 287.351 320.553 285.805 320.553C284.258 320.553 283.005 321.806 283.005 323.353C283.005 324.899 284.258 326.153 285.805 326.153Z" fill="white" stroke="#263238" stroke-linecap="round" stroke-linejoin="round"/>
<path d="M285.805 332.053C287.305 332.053 288.605 331.553 289.705 330.753C289.705 328.653 287.905 326.853 285.805 326.853C283.705 326.853 281.905 328.553 281.905 330.753C283.005 331.553 284.305 332.053 285.805 332.053Z" fill="white" stroke="#263238" stroke-linecap="round" stroke-linejoin="round"/>
<path d="M297.205 319.753H319.905" stroke="#263238" stroke-miterlimit="10"/>
<path d="M297.705 326.253H344.505" stroke="#263238" stroke-miterlimit="10"/>
<path d="M297.705 330.353H344.505" stroke="#263238" stroke-miterlimit="10"/>
<path d="M118.005 215.453H245.305C246.405 215.453 247.405 216.353 247.405 217.553V286.053C247.405 287.953 245.905 289.553 243.905 289.553H119.405C117.505 289.553 115.905 288.053 115.905 286.053V217.553C115.905 216.453 116.805 215.453 118.005 215.453Z" fill="#263238" stroke="#263238" stroke-linecap="round" stroke-linejoin="round"/>
<path d="M118.005 215.453H245.305C246.405 215.453 247.405 216.353 247.405 217.553V227.553H115.905V217.553C115.905 216.453 116.805 215.453 118.005 215.453Z" fill="#263238" stroke="#263238" stroke-linecap="round" stroke-linejoin="round"/>
<path d="M220.405 224.353C221.896 224.353 223.105 223.144 223.105 221.653C223.105 220.161 221.896 218.953 220.405 218.953C218.914 218.953 217.705 220.161 217.705 221.653C217.705 223.144 218.914 224.353 220.405 224.353Z" fill="#263238" stroke="#263238" stroke-linecap="round" stroke-linejoin="round"/>
<path d="M228.905 224.353C230.396 224.353 231.605 223.144 231.605 221.653C231.605 220.161 230.396 218.953 228.905 218.953C227.414 218.953 226.205 220.161 226.205 221.653C226.205 223.144 227.414 224.353 228.905 224.353Z" fill="#263238" stroke="#263238" stroke-linecap="round" stroke-linejoin="round"/>
<path d="M237.405 224.353C238.896 224.353 240.105 223.144 240.105 221.653C240.105 220.161 238.896 218.953 237.405 218.953C235.914 218.953 234.705 220.161 234.705 221.653C234.705 223.144 235.914 224.353 237.405 224.353Z" fill="#263238" stroke="#263238" stroke-linecap="round" stroke-linejoin="round"/>
<path d="M157.005 239.053H130.005V264.853H157.005V239.053Z" fill="#263238" stroke="#263238" stroke-miterlimit="10"/>
<path d="M166.005 242.053H236.805" stroke="#263238" stroke-miterlimit="10"/>
<path d="M166.005 250.453H236.805" stroke="#263238" stroke-miterlimit="10"/>
<path d="M166.005 258.853H236.805" stroke="#263238" stroke-miterlimit="10"/>
<path d="M166.005 267.252H236.805" stroke="#263238" stroke-miterlimit="10"/>
<path d="M114.805 210.653H242.105C243.205 210.653 244.205 211.553 244.205 212.753V281.253C244.205 283.153 242.705 284.753 240.705 284.753H116.205C114.305 284.753 112.705 283.253 112.705 281.253V212.753C112.705 211.653 113.605 210.653 114.805 210.653Z" fill="white" stroke="#263238" stroke-linecap="round" stroke-linejoin="round"/>
<path d="M114.805 210.653H242.105C243.205 210.653 244.205 211.553 244.205 212.753V222.753H112.805V212.753C112.805 211.653 113.705 210.653 114.905 210.653H114.805Z" fill="#2F55D4" stroke="#263238" stroke-linecap="round" stroke-linejoin="round"/>
<path d="M217.305 219.553C218.796 219.553 220.005 218.344 220.005 216.853C220.005 215.362 218.796 214.153 217.305 214.153C215.814 214.153 214.605 215.362 214.605 216.853C214.605 218.344 215.814 219.553 217.305 219.553Z" fill="white" stroke="#263238" stroke-linecap="round" stroke-linejoin="round"/>
<path d="M225.705 219.553C227.196 219.553 228.405 218.344 228.405 216.853C228.405 215.362 227.196 214.153 225.705 214.153C224.214 214.153 223.005 215.362 223.005 216.853C223.005 218.344 224.214 219.553 225.705 219.553Z" fill="white" stroke="#263238" stroke-linecap="round" stroke-linejoin="round"/>
<path d="M234.205 219.553C235.696 219.553 236.905 218.344 236.905 216.853C236.905 215.362 235.696 214.153 234.205 214.153C232.714 214.153 231.505 215.362 231.505 216.853C231.505 218.344 232.714 219.553 234.205 219.553Z" fill="white" stroke="#263238" stroke-linecap="round" stroke-linejoin="round"/>
<path d="M153.905 234.253H126.905V260.053H153.905V234.253Z" stroke="#263238" stroke-miterlimit="10"/>
<path d="M162.805 237.253H233.605" stroke="#263238" stroke-miterlimit="10"/>
<path d="M162.805 245.653H233.605" stroke="#263238" stroke-miterlimit="10"/>
<path d="M162.805 254.053H233.605" stroke="#263238" stroke-miterlimit="10"/>
<path d="M162.805 262.453H233.605" stroke="#263238" stroke-miterlimit="10"/>
<path d="M359.605 161.053H268.605C266.175 161.053 264.205 163.023 264.205 165.453V244.453C264.205 246.883 266.175 248.853 268.605 248.853H359.605C362.035 248.853 364.005 246.883 364.005 244.453V165.453C364.005 163.023 362.035 161.053 359.605 161.053Z" fill="#263238" stroke="#263238" stroke-linecap="round" stroke-linejoin="round"/>
<path d="M265.405 156.353H356.505C358.905 156.353 360.905 158.353 360.905 160.753V239.753C360.905 242.153 358.905 244.153 356.505 244.153H265.405C263.005 244.153 261.005 242.153 261.005 239.753V160.753C261.005 158.353 263.005 156.353 265.405 156.353Z" fill="white" stroke="#263238" stroke-linecap="round" stroke-linejoin="round"/>
<path d="M283.005 191.453H273.805V234.053H283.005V191.453Z" fill="#263238" stroke="#263238" stroke-linecap="round" stroke-linejoin="round"/>
<path d="M296.005 198.353H286.805V234.053H296.005V198.353Z" fill="#2F55D4" stroke="#263238" stroke-linecap="round" stroke-linejoin="round"/>
<path d="M309.005 204.152H299.805V234.052H309.005V204.152Z" fill="white" stroke="#263238" stroke-linecap="round" stroke-linejoin="round"/>
<path d="M322.105 186.453H312.905V234.053H322.105V186.453Z" fill="#263238" stroke="#263238" stroke-linecap="round" stroke-linejoin="round"/>
<path d="M335.105 192.252H325.905V234.052H335.105V192.252Z" fill="#2F55D4" stroke="#263238" stroke-linecap="round" stroke-linejoin="round"/>
<path d="M348.205 172.353H339.005V234.153H348.205V172.353Z" fill="white" stroke="#263238" stroke-linecap="round" stroke-linejoin="round"/>
<path d="M274.405 167.853H283.605" stroke="#263238" stroke-miterlimit="10"/>
<path d="M274.405 171.752H283.605" stroke="#263238" stroke-miterlimit="10"/>
<path d="M274.405 175.553H283.605" stroke="#263238" stroke-miterlimit="10"/>
<path d="M286.705 167.853H323.905" stroke="#263238" stroke-miterlimit="10"/>
<path d="M286.705 171.752H323.905" stroke="#263238" stroke-miterlimit="10"/>
<path d="M286.705 175.553H323.905" stroke="#263238" stroke-miterlimit="10"/>
<path d="M359.605 57.1523H268.605C266.175 57.1523 264.205 59.1223 264.205 61.5523V140.552C264.205 142.982 266.175 144.952 268.605 144.952H359.605C362.035 144.952 364.005 142.982 364.005 140.552V61.5523C364.005 59.1223 362.035 57.1523 359.605 57.1523Z" fill="#263238" stroke="#263238" stroke-linecap="round" stroke-linejoin="round"/>
<path d="M265.405 52.3525H356.505C358.905 52.3525 360.905 54.3525 360.905 56.7525V135.753C360.905 138.153 358.905 140.153 356.505 140.153H265.405C263.005 140.153 261.005 138.153 261.005 135.753V56.7525C261.005 54.3525 263.005 52.3525 265.405 52.3525Z" fill="white" stroke="#263238" stroke-linecap="round" stroke-linejoin="round"/>
<path d="M308.505 122.453C323.969 122.453 336.505 109.917 336.505 94.4526C336.505 78.9887 323.969 66.4526 308.505 66.4526C293.041 66.4526 280.505 78.9887 280.505 94.4526C280.505 109.917 293.041 122.453 308.505 122.453Z" fill="white" stroke="#263238" stroke-linecap="round" stroke-linejoin="round"/>
<path d="M335.705 87.6525C334.505 82.8525 332.105 78.3525 328.305 74.6525C317.405 63.7525 299.605 63.7525 288.705 74.6525L308.505 94.4525L335.705 87.7525V87.6525Z" fill="#263238" stroke="#263238" stroke-linecap="round" stroke-linejoin="round"/>
<path d="M335.705 87.6528L308.505 94.3528L300.405 121.153C310.005 124.053 320.705 121.653 328.305 114.153C335.905 106.653 338.005 96.8528 335.705 87.6528Z" fill="#2F55D4" stroke="#263238" stroke-linecap="round" stroke-linejoin="round"/>
<path d="M319.605 76.8526L328.805 64.9526H334.605" stroke="#263238" stroke-miterlimit="10"/>
<path d="M340.005 65.2524H349.205" stroke="#263238" stroke-miterlimit="10"/>
<path d="M340.005 69.1523H349.205" stroke="#263238" stroke-miterlimit="10"/>
<path d="M340.005 72.9526H349.205" stroke="#263238" stroke-miterlimit="10"/>
<path d="M340.005 115.153H349.205" stroke="#263238" stroke-miterlimit="10"/>
<path d="M340.005 118.953H349.205" stroke="#263238" stroke-miterlimit="10"/>
<path d="M340.005 122.853H349.205" stroke="#263238" stroke-miterlimit="10"/>
<path d="M268.605 114.353H277.805" stroke="#263238" stroke-miterlimit="10"/>
<path d="M268.605 118.252H277.805" stroke="#263238" stroke-miterlimit="10"/>
<path d="M268.605 122.053H277.805" stroke="#263238" stroke-miterlimit="10"/>
<path d="M292.805 113.252L289.305 122.052H280.105" stroke="#263238" stroke-miterlimit="10"/>
<path d="M330.005 102.453H345.305V107.453" stroke="#263238" stroke-miterlimit="10"/>
<path d="M239.905 57.4526H148.905C146.475 57.4526 144.505 59.4226 144.505 61.8526V140.853C144.505 143.283 146.475 145.253 148.905 145.253H239.905C242.335 145.253 244.305 143.283 244.305 140.853V61.8526C244.305 59.4226 242.335 57.4526 239.905 57.4526Z" fill="#263238" stroke="#263238" stroke-linecap="round" stroke-linejoin="round"/>
<path d="M235.605 52.3525H144.605C142.175 52.3525 140.205 54.3225 140.205 56.7525V135.753C140.205 138.183 142.175 140.153 144.605 140.153H235.605C238.035 140.153 240.005 138.183 240.005 135.753V56.7525C240.005 54.3225 238.035 52.3525 235.605 52.3525Z" fill="white" stroke="#263238" stroke-linecap="round" stroke-linejoin="round"/>
<path d="M150.605 123.553V126.953" stroke="#263238" stroke-miterlimit="10"/>
<path d="M158.705 123.553V126.953" stroke="#263238" stroke-miterlimit="10"/>
<path d="M166.805 123.553V126.953" stroke="#263238" stroke-miterlimit="10"/>
<path d="M175.005 123.553V126.953" stroke="#263238" stroke-miterlimit="10"/>
<path d="M183.105 123.553V126.953" stroke="#263238" stroke-miterlimit="10"/>
<path d="M191.205 123.553V126.953" stroke="#263238" stroke-miterlimit="10"/>
<path d="M199.405 123.553V126.953" stroke="#263238" stroke-miterlimit="10"/>
<path d="M207.505 123.553V126.953" stroke="#263238" stroke-miterlimit="10"/>
<path d="M215.605 123.553V126.953" stroke="#263238" stroke-miterlimit="10"/>
<path d="M223.805 123.553V126.953" stroke="#263238" stroke-miterlimit="10"/>
<path d="M231.905 123.553V126.953" stroke="#263238" stroke-miterlimit="10"/>
<path d="M228.505 76.0527L219.705 80.8527L212.605 66.6527L203.405 78.4527L195.305 71.3527L187.505 62.5527L179.405 72.0527L171.205 95.0527L162.405 86.5527L153.605 93.0527V114.353H228.505V76.0527Z" fill="#2F55D4" stroke="#263238" stroke-linecap="round" stroke-linejoin="round"/>
<path d="M153.805 62.3525H163.005" stroke="#263238" stroke-miterlimit="10"/>
<path d="M153.805 66.1523H163.005" stroke="#263238" stroke-miterlimit="10"/>
<path d="M153.805 70.0527H163.005" stroke="#263238" stroke-miterlimit="10"/>
<path d="M228.505 94.8524L219.705 98.1524L212.605 82.2524L203.405 93.3524L195.305 90.6524L187.505 107.552L179.405 84.8524L171.205 107.552L162.405 99.1524L153.605 110.352V118.452H228.505V94.8524Z" fill="#263238" stroke="#263238" stroke-linecap="round" stroke-linejoin="round"/>
<path d="M407.905 100.953C407.905 100.953 404.605 92.1529 395.105 93.1529C385.605 94.0529 381.305 101.653 383.005 106.653C384.705 111.653 385.605 113.253 385.605 113.253C385.605 113.253 382.505 111.853 383.505 116.853C384.405 121.853 391.605 120.853 392.805 120.453C394.005 119.953 399.205 106.653 408.005 100.953H407.905Z" fill="#263238" stroke="#263238" stroke-linecap="round" stroke-linejoin="round"/>
<path d="M347.405 186.053L330.605 194.453C329.305 195.153 329.205 197.053 330.605 197.753L375.505 223.053C376.305 223.453 377.305 223.353 377.805 222.653L388.305 210.353C389.105 209.453 388.805 208.053 387.805 207.453L349.205 186.053C348.705 185.753 348.005 185.753 347.505 186.053H347.405Z" fill="#263238" stroke="#263238" stroke-linecap="round" stroke-linejoin="round"/>
<path d="M388.505 201.253L381.405 196.653C381.405 196.653 376.105 190.753 374.105 189.653C372.105 188.653 358.705 191.053 358.705 191.053L388.105 207.653L388.505 201.153V201.253Z" fill="white" stroke="#263238" stroke-linecap="round" stroke-linejoin="round"/>
<path d="M374.005 193.953C374.005 193.953 368.805 194.153 365.605 192.853C362.405 191.453 360.505 192.153 362.205 194.853C363.905 197.553 369.105 197.353 369.105 197.353C369.105 197.353 373.705 202.853 379.205 200.753" fill="white"/>
<path d="M374.005 193.953C374.005 193.953 368.805 194.153 365.605 192.853C362.405 191.453 360.505 192.153 362.205 194.853C363.905 197.553 369.105 197.353 369.105 197.353C369.105 197.353 373.705 202.853 379.205 200.753" stroke="#263238" stroke-linecap="round" stroke-linejoin="round"/>
<path d="M445.805 432.753C445.805 432.753 448.805 444.153 448.505 446.153C448.305 448.153 442.105 449.853 438.605 449.853C435.105 449.853 428.205 451.053 428.205 451.053L428.405 432.653H445.805V432.753Z" fill="white" stroke="#263238" stroke-linecap="round" stroke-linejoin="round"/>
<path d="M448.605 446.153C448.605 445.653 448.605 444.553 448.305 443.153C446.305 444.253 443.405 445.553 440.705 446.353C436.505 447.553 430.505 447.653 428.305 447.653V451.153C428.305 451.153 435.205 449.953 438.705 449.953C442.205 449.953 448.405 448.253 448.605 446.253V446.153Z" fill="white" stroke="#263238" stroke-linecap="round" stroke-linejoin="round"/>
<path d="M424.805 323.153C424.805 323.153 428.005 350.153 429.305 355.353C430.605 360.553 436.705 369.453 439.205 383.353C441.705 397.253 446.405 429.453 446.405 430.253C446.405 431.053 446.905 433.253 447.105 434.753C447.105 434.753 441.605 436.953 437.705 436.453C433.705 435.953 430.305 434.953 430.305 434.953C430.305 434.953 432.005 424.253 428.305 405.153C424.605 386.053 420.905 366.253 418.605 352.353C416.305 338.453 424.805 323.053 424.805 323.053V323.153Z" fill="#999999" stroke="#263238" stroke-linecap="round" stroke-linejoin="round"/>
<path d="M412.105 429.853C412.105 429.853 410.605 432.353 406.405 436.053C402.205 439.753 394.205 443.753 392.005 444.753C389.805 445.753 388.005 445.753 388.505 447.953C389.005 450.153 392.705 451.953 403.905 451.953C415.105 451.953 427.005 451.453 428.205 451.253C429.405 451.053 433.205 451.053 433.205 448.253C433.205 445.453 432.005 434.653 432.005 434.653L412.205 429.953L412.105 429.853Z" fill="white" stroke="#263238" stroke-linecap="round" stroke-linejoin="round"/>
<path d="M428.204 451.153C429.404 450.953 433.204 450.953 433.204 448.153C433.204 445.353 433.204 447.153 433.204 446.453C429.004 447.053 419.304 448.153 408.504 449.153C398.904 449.953 392.204 448.353 388.604 447.153C388.604 447.353 388.604 447.653 388.604 447.953C389.104 450.153 392.804 451.953 404.004 451.953C415.204 451.953 427.104 451.453 428.304 451.253L428.204 451.153Z" fill="white" stroke="#263238" stroke-linecap="round" stroke-linejoin="round"/>
<path d="M385.805 266.153C385.805 266.153 385.605 285.753 388.305 307.853C391.005 329.953 399.005 356.753 399.005 356.753C399.005 356.753 403.005 378.353 404.205 385.753C405.405 393.153 411.905 422.453 411.905 422.453L409.205 426.153L409.705 432.553C409.705 432.553 411.905 433.053 419.605 434.753C427.305 436.453 432.005 436.253 432.005 436.253C432.005 436.253 432.505 423.353 432.205 421.653C432.005 419.953 430.505 411.753 430.205 409.053C430.005 406.353 430.705 376.053 429.005 369.153C427.305 362.253 424.305 352.053 424.305 343.153C424.305 334.253 431.005 290.553 431.005 290.553C431.005 290.553 438.205 280.353 438.205 274.453C438.205 268.553 437.505 265.553 437.505 265.553L385.905 266.253L385.805 266.153Z" fill="#BDBDBD" stroke="#263238" stroke-linecap="round" stroke-linejoin="round"/>
<path d="M421.005 413.953C421.605 419.453 421.805 423.053 421.805 423.053C421.805 423.053 420.205 423.853 421.005 426.653C421.805 429.453 422.205 431.453 422.205 431.453" stroke="#263238" stroke-width="0.8" stroke-linecap="round" stroke-linejoin="round"/>
<path d="M405.005 294.353C404.405 304.253 404.305 317.753 406.305 331.853C410.305 359.753 417.105 384.853 419.105 398.053C419.705 402.053 420.205 405.853 420.605 409.353" stroke="#263238" stroke-width="0.8" stroke-linecap="round" stroke-linejoin="round"/>
<path d="M406.605 278.453C406.605 278.453 405.805 282.853 405.205 289.953" stroke="#263238" stroke-width="0.8" stroke-linecap="round" stroke-linejoin="round"/>
<path d="M433.705 108.953C433.705 108.953 436.805 96.6529 455.305 98.0529C473.805 99.4529 473.605 116.353 473.605 116.353L469.605 114.453C469.605 114.453 472.905 124.153 469.105 131.253C465.305 138.353 455.605 142.353 449.205 141.253C442.805 140.153 435.905 134.153 435.005 130.853C434.105 127.553 437.605 115.953 433.805 109.053L433.705 108.953Z" fill="#263238" stroke="#263238" stroke-linecap="round" stroke-linejoin="round"/>
<path d="M396.904 107.553C396.904 107.553 395.504 109.953 392.604 114.953C389.804 119.953 390.904 124.453 389.004 126.853C387.104 129.253 381.904 128.953 382.604 131.353C383.304 133.753 386.404 135.353 386.404 135.353C386.404 135.353 386.404 148.653 387.804 150.253C389.204 151.953 400.104 149.053 400.104 149.053C400.104 149.053 402.204 152.353 400.804 159.753C399.404 167.153 386.604 187.553 384.904 197.753C383.204 207.953 388.904 233.353 388.904 233.353L383.404 270.353C383.404 270.353 397.204 275.553 413.504 274.153C429.904 272.753 439.804 269.453 439.804 269.453L428.904 226.553C428.904 226.553 429.804 196.153 427.704 179.353C425.604 162.553 420.104 158.453 420.104 152.353C420.104 146.253 427.904 142.853 432.904 136.953C435.204 134.253 441.204 123.953 435.304 111.053C431.404 102.653 418.904 99.4528 410.404 99.1528C401.904 98.9528 396.604 107.653 396.604 107.653L396.904 107.553Z" fill="white" stroke="#263238" stroke-linecap="round" stroke-linejoin="round"/>
<path d="M400.304 149.053L405.504 147.853L402.304 154.353C402.304 154.353 401.604 151.053 400.304 149.053Z" fill="#263238" stroke="#263238" stroke-linecap="round" stroke-linejoin="round"/>
<path d="M440.104 269.353L429.204 226.453C429.204 226.453 430.104 196.053 428.004 179.253C427.404 174.753 426.604 171.253 425.804 168.253C422.304 165.553 416.904 162.153 411.404 161.653C405.004 161.153 398.704 168.553 395.304 173.153C391.104 181.653 386.104 191.553 385.104 197.653C383.404 207.853 389.104 233.253 389.104 233.253L383.604 270.253C383.604 270.253 397.404 275.453 413.704 274.053C430.104 272.653 440.004 269.353 440.004 269.353H440.104Z" fill="#2F55D4" stroke="#263238" stroke-linecap="round" stroke-linejoin="round"/>
<path d="M410.705 99.053C402.205 98.853 396.905 107.553 396.905 107.553C396.905 107.553 396.205 108.753 394.705 111.353C396.205 109.553 401.605 103.853 403.805 109.953C405.105 113.553 401.905 118.453 403.605 120.153C405.305 121.853 408.605 125.653 408.105 126.353C407.605 127.053 407.405 128.753 407.405 128.753C407.405 128.753 411.705 122.553 415.005 126.353C418.305 130.153 413.805 137.253 413.805 137.253L411.005 138.153C411.005 138.153 420.305 148.553 421.905 148.553C423.505 148.553 423.605 144.953 425.705 144.253C428.205 141.953 430.205 140.353 433.305 136.653C435.605 133.953 441.605 123.653 435.705 110.753C431.805 102.353 419.305 99.153 410.805 98.853L410.705 99.053Z" fill="#263238" stroke="#263238" stroke-linecap="round" stroke-linejoin="round"/>
<path d="M394.504 126.153C394.204 127.353 393.604 128.253 393.104 128.153C392.604 128.053 392.404 126.953 392.604 125.753C392.904 124.553 393.504 123.653 394.004 123.753C394.504 123.853 394.704 124.953 394.504 126.153Z" fill="#263238"/>
<path d="M392.705 120.353C392.705 120.353 395.305 117.553 397.005 121.053" stroke="#263238" stroke-linecap="round" stroke-linejoin="round"/>
<path d="M388.404 138.153C388.404 138.153 388.904 139.053 391.504 138.153" stroke="#263238" stroke-linecap="round" stroke-linejoin="round"/>
<path d="M404.105 174.453C404.105 174.453 400.505 179.453 399.105 188.653C397.705 197.953 398.905 228.053 398.905 228.053C398.905 228.053 378.705 222.353 372.105 219.053C365.505 215.753 363.305 214.353 363.305 214.353C363.305 214.353 361.205 209.353 359.505 207.453C357.805 205.553 353.305 205.053 351.705 203.853C350.005 202.653 348.905 198.853 346.705 200.253C344.605 201.653 345.505 203.553 346.505 204.253C347.405 204.953 351.005 208.553 351.005 208.553L342.005 204.553C342.005 204.553 341.305 208.153 342.505 209.253C343.705 210.353 346.105 212.553 346.105 212.553C346.105 212.553 349.705 217.553 351.805 218.753C353.905 219.953 357.705 220.853 358.405 221.153C360.505 221.853 362.705 223.653 364.605 224.853C368.605 227.253 372.705 229.753 376.705 232.253C382.805 235.953 389.605 239.153 396.505 241.553C400.805 243.053 411.405 247.753 415.105 243.053C416.705 241.053 416.205 235.053 416.605 232.553C419.305 216.653 422.705 200.653 422.705 184.453" fill="#2F55D4"/>
<path d="M404.105 174.453C404.105 174.453 400.505 179.453 399.105 188.653C397.705 197.953 398.905 228.053 398.905 228.053C398.905 228.053 378.705 222.353 372.105 219.053C365.505 215.753 363.305 214.353 363.305 214.353C363.305 214.353 361.205 209.353 359.505 207.453C357.805 205.553 353.305 205.053 351.705 203.853C350.005 202.653 348.905 198.853 346.705 200.253C344.605 201.653 345.505 203.553 346.505 204.253C347.405 204.953 351.005 208.553 351.005 208.553L342.005 204.553C342.005 204.553 341.305 208.153 342.505 209.253C343.705 210.353 346.105 212.553 346.105 212.553C346.105 212.553 349.705 217.553 351.805 218.753C353.905 219.953 357.705 220.853 358.405 221.153C360.505 221.853 362.705 223.653 364.605 224.853C368.605 227.253 372.705 229.753 376.705 232.253C382.805 235.953 389.605 239.153 396.505 241.553C400.805 243.053 411.405 247.753 415.105 243.053C416.705 241.053 416.205 235.053 416.605 232.553C419.305 216.653 422.705 200.653 422.705 184.453" stroke="#263238" stroke-linecap="round" stroke-linejoin="round"/>
<path d="M391.605 225.953C385.105 223.953 376.005 221.053 372.005 219.053C365.405 215.753 363.205 214.353 363.205 214.353C363.205 214.353 361.105 209.353 359.405 207.453C357.705 205.553 353.205 205.053 351.605 203.853C349.905 202.653 348.805 198.853 346.605 200.253C344.505 201.653 345.405 203.553 346.405 204.253C347.305 204.953 350.905 208.553 350.905 208.553L341.905 204.553C341.905 204.553 341.205 208.153 342.405 209.253C343.605 210.353 346.005 212.553 346.005 212.553C346.005 212.553 349.605 217.553 351.705 218.753C353.805 219.953 357.605 220.853 358.305 221.153C360.405 221.853 362.605 223.653 364.505 224.853C368.505 227.253 372.605 229.753 376.605 232.253C380.405 234.553 384.505 236.653 388.705 238.553L391.705 226.053L391.605 225.953Z" fill="white" stroke="#263238" stroke-linecap="round" stroke-linejoin="round"/>
<path d="M405.705 234.953L398.805 228.053L400.705 234.453" stroke="#263238" stroke-linecap="round" stroke-linejoin="round"/>
<path d="M102.905 331.353C102.905 331.353 98.6045 357.053 93.0045 380.853C87.4045 404.553 89.0045 437.553 89.0045 437.553C89.0045 437.553 86.0045 443.853 88.7045 446.753C91.3045 449.753 95.6045 448.753 96.6045 448.753C97.6045 448.753 104.505 448.453 104.505 448.453C104.505 448.453 109.805 417.153 111.805 388.753C113.805 360.353 112.105 317.153 110.205 318.853C108.205 320.453 103.905 329.053 103.905 329.053L102.905 331.353Z" fill="#263238" stroke="#263238" stroke-linecap="round" stroke-linejoin="round"/>
<path d="M89.4046 247.953C89.4046 247.953 85.4046 271.053 86.4046 277.653C87.4046 284.253 90.0046 292.453 90.0046 292.453C90.0046 292.453 98.9046 332.053 99.9046 334.953C100.905 337.953 99.9046 373.153 97.9046 388.653C95.9046 404.153 99.2046 414.353 99.9046 419.353C100.605 424.253 100.205 440.453 100.205 440.453L99.5046 449.653C99.5046 449.653 104.105 451.253 112.405 451.253C120.705 451.253 138.105 452.253 138.105 452.253C138.105 452.253 148.705 451.953 147.705 447.353C146.705 442.753 134.805 440.453 131.505 437.453C128.205 434.453 125.905 431.853 125.905 431.853C125.905 431.853 126.205 428.553 125.605 426.953C124.905 425.353 122.305 425.353 122.605 422.953C122.905 420.653 128.505 368.253 132.805 354.653C137.105 341.053 140.405 285.753 140.105 276.153C139.805 266.553 137.805 252.053 137.805 252.053L89.3046 247.753L89.4046 247.953Z" fill="#263238" stroke="#263238" stroke-linecap="round" stroke-linejoin="round"/>
<path d="M92.8047 157.953C92.8047 157.953 83.1047 178.653 81.6047 192.853C80.2047 207.053 87.9047 242.353 87.9047 242.353C87.9047 242.353 84.9047 251.253 87.1047 252.653C89.3047 254.053 139.005 256.753 139.005 256.753C139.005 256.753 142.005 256.353 142.005 253.753C142.005 251.153 141.205 249.253 140.805 247.053C140.405 244.853 141.405 199.153 136.905 189.053C132.405 178.953 123.305 166.553 123.305 166.553L92.7047 158.053L92.8047 157.953Z" fill="#D4D4D4" stroke="#263238" stroke-linecap="round" stroke-linejoin="round"/>
<path d="M101.604 241.753C107.104 234.453 115.404 223.353 121.304 214.253" stroke="#263238" stroke-linecap="round" stroke-linejoin="round"/>
<path d="M95.8047 249.353C95.8047 249.353 96.9047 247.953 98.7047 245.653" stroke="#263238" stroke-linecap="round" stroke-linejoin="round"/>
<path d="M120.505 209.853C120.505 209.853 101.405 223.053 99.0049 223.753" stroke="#263238" stroke-linecap="round" stroke-linejoin="round"/>
<path d="M134.405 102.353C134.405 102.353 137.605 91.653 138.305 88.353C138.905 85.153 140.505 82.053 140.505 82.053V89.953C140.505 89.953 142.905 87.153 145.605 83.653C148.205 80.253 150.705 80.453 149.705 84.053C148.705 87.753 146.005 91.753 145.805 92.353C145.605 92.953 144.605 97.453 143.405 100.053C142.205 102.653 139.105 106.153 139.105 106.153L134.405 102.253V102.353Z" fill="white" stroke="#263238" stroke-linecap="round" stroke-linejoin="round"/>
<path d="M121.205 110.453L134.405 102.353C134.405 102.353 138.105 101.953 139.105 106.253C140.105 110.553 139.505 108.053 139.505 108.053L129.205 122.653L121.305 110.453H121.205Z" fill="white" stroke="#263238" stroke-linecap="round" stroke-linejoin="round"/>
<path d="M119.405 105.253C119.405 105.253 109.505 94.9528 107.005 95.7528C104.605 96.5528 105.805 100.853 105.805 100.853C105.805 100.853 99.9045 98.6528 99.7045 100.253L99.5045 101.853C99.5045 101.853 89.0045 108.153 86.1045 114.853C83.3045 121.553 82.9045 128.053 86.1045 131.653C89.3045 135.353 97.3046 148.253 97.3046 148.253L97.5045 154.553L117.605 159.653L119.405 151.153C119.405 151.153 128.905 151.153 129.705 149.753C130.505 148.353 130.905 132.753 130.905 132.753L135.205 127.453C135.205 127.453 127.505 118.553 126.305 115.853C125.105 113.153 121.805 108.353 119.405 105.353V105.253Z" fill="white" stroke="#263238" stroke-linecap="round" stroke-linejoin="round"/>
<path d="M129.705 136.553C129.705 136.553 128.805 137.853 126.205 135.253" stroke="#263238" stroke-linecap="round" stroke-linejoin="round"/>
<path d="M119.405 105.253C119.405 105.253 109.505 94.9528 107.005 95.7528C104.605 96.5528 105.805 100.853 105.805 100.853C105.805 100.853 99.9045 98.6528 99.7045 100.253L99.5045 101.853C99.5045 101.853 89.0045 108.153 86.1045 114.853C83.3045 121.553 82.9045 128.053 86.1045 131.653C88.6045 134.453 93.9045 142.853 96.2045 146.553C97.6045 146.653 99.0045 146.753 100.305 146.553C106.005 145.553 109.805 139.053 109.805 139.053C109.805 139.053 105.905 137.853 105.705 132.753C105.505 127.653 108.705 126.653 108.705 126.653C108.705 126.653 111.505 129.853 114.005 128.453C116.505 127.053 111.005 124.353 110.105 122.353C109.205 120.353 111.305 117.453 111.705 116.053C112.105 114.653 107.805 115.053 106.205 114.253C104.605 113.453 113.305 109.353 115.105 108.153C116.905 106.953 113.105 107.753 110.805 106.553C108.605 105.353 119.105 105.353 119.105 105.353L119.405 105.253Z" fill="#263238" stroke="#263238" stroke-linecap="round" stroke-linejoin="round"/>
<path d="M125.004 120.653C125.404 121.753 125.304 122.753 124.904 122.953C124.504 123.153 123.704 122.353 123.304 121.253C122.904 120.153 123.004 119.153 123.404 118.953C123.804 118.753 124.604 119.553 125.004 120.653Z" fill="#263238"/>
<path d="M120.405 117.353C120.405 117.353 121.205 111.653 124.905 114.153" stroke="#263238" stroke-linecap="round" stroke-linejoin="round"/>
<path d="M109.905 138.853L113.705 137.853L114.705 140.953" stroke="#263238" stroke-linecap="round" stroke-linejoin="round"/>
<path d="M92.2047 150.653C92.8047 150.653 124.405 160.553 124.405 160.553L125.005 169.853L91.3047 159.753L92.1047 150.653H92.2047Z" fill="#D4D4D4" stroke="#263238" stroke-linecap="round" stroke-linejoin="round"/>
<path d="M98.105 195.453C98.105 195.453 135.805 211.853 146.205 212.853C156.505 213.853 203.405 165.153 203.405 165.153L197.905 158.053C197.905 158.053 159.605 177.753 154.905 179.353C150.205 180.953 111.505 168.653 108.705 167.953C105.905 167.353 99.605 168.353 97.105 171.653" fill="#D4D4D4"/>
<path d="M98.105 195.453C98.105 195.453 135.805 211.853 146.205 212.853C156.505 213.853 203.405 165.153 203.405 165.153L197.905 158.053C197.905 158.053 159.605 177.753 154.905 179.353C150.205 180.953 111.505 168.653 108.705 167.953C105.905 167.353 99.605 168.353 97.105 171.653" stroke="#263238" stroke-linecap="round" stroke-linejoin="round"/>
<path d="M110.305 200.753L95.5049 201.953" stroke="#263238" stroke-linecap="round" stroke-linejoin="round"/>
<path d="M193.205 161.553L199.305 169.153" stroke="#263238" stroke-linecap="round" stroke-linejoin="round"/>
<path d="M197.905 158.153L203.605 150.253L206.005 142.953C206.405 141.753 210.305 139.053 211.505 137.453C212.705 135.853 213.905 132.153 215.205 133.153C216.505 134.153 216.205 136.353 215.805 137.453C215.405 138.453 213.405 140.653 213.205 141.753C213.005 142.853 225.405 139.553 225.405 139.553C225.405 139.553 227.405 140.153 226.805 141.753C226.205 143.353 224.205 146.053 224.205 146.053C224.205 146.053 221.805 153.753 219.905 155.553C218.105 157.353 209.605 159.853 209.605 159.853L203.505 165.353L198.005 158.253L197.905 158.153Z" fill="white" stroke="#263238" stroke-linecap="round" stroke-linejoin="round"/>
</svg>
